# xmcd CD database file
#
# Track frame offsets:
#	150
#	11100
#	25581
#	39399
#	51936
#	69662
#	86270
#	105877
#	122948
#	138950
#	158684
#	169075
#	182445
#	198728
#
# Disc length: 2844 seconds
#
# Revision: 0
# Processed by: cddbd v1.5.2PL0 Copyright (c) Steve Scherf et al.
# Submitted via: ACXtractor (MTCDDB.DLL V2003.12.21)
#
DISCID=ae0b1a0e
DTITLE=Damien Leith - Roy Tribute to Roy Orbison
DYEAR=2011
DGENRE=Country
TTITLE0=Only the Lonely/Damen Leith
TTITLE1=Crying/Damen Leith
TTITLE2=Dream Baby/Damen Leith
TTITLE3=Oh Pretty Woman/ Damin Leith
TTITLE4=In Dreams/Damin Leith
TTITLE5=Leith Damien Blue Bayou
TTITLE6=I Drove all Night/Damin Leith
TTITLE7=Handle with Care/Damin Leith
TTITLE8=You Got It/Damin Leith
TTITLE9=She's a Mystery to Me/ Damin Leith
TTITLE10=Running Scared/ Damin Leith
TTITLE11=It's Over/Damin Leith
TTITLE12=Love Hurts/Damin Leith
TTITLE13=Working for the Man/Damin Leith
EXTD=ID3G:   2 YEAR: 2011
EXTT0=
EXTT1=
EXTT2=
EXTT3=
EXTT4=
EXTT5=
EXTT6=
EXTT7=
EXTT8=
EXTT9=
EXTT10=
EXTT11=
EXTT12=
EXTT13=
PLAYORDER=
